<mxfile host="app.diagrams.net" modified="2023-06-21T09:38:58.673Z" agent="Mozilla/5.0 (Windows NT 10.0; Win64; x64) AppleWebKit/537.36 (KHTML, like Gecko) Chrome/114.0.0.0 Safari/537.36" etag="5eUpbxlCOiLUnJvpM5fd" version="21.5.0" type="google">
  <diagram name="Page-0" id="Page-0">
    <mxGraphModel dx="1034" dy="434" grid="1" gridSize="10" guides="1" tooltips="1" connect="1" arrows="1" fold="1" page="1" pageScale="1" pageWidth="1354" pageHeight="1016" math="0" shadow="0">
      <root>
        <mxCell id="0" />
        <mxCell id="1" parent="0" />
        <mxCell id="2suP8_pyrmivRRA_hnuG-4" value="" style="edgeStyle=orthogonalEdgeStyle;rounded=0;orthogonalLoop=1;jettySize=auto;html=1;" parent="1" source="2suP8_pyrmivRRA_hnuG-2" target="2suP8_pyrmivRRA_hnuG-3" edge="1">
          <mxGeometry relative="1" as="geometry" />
        </mxCell>
        <mxCell id="2suP8_pyrmivRRA_hnuG-2" value="CICIDS-2017" style="rounded=1;whiteSpace=wrap;html=1;" parent="1" vertex="1">
          <mxGeometry x="480" y="200" width="120" height="60" as="geometry" />
        </mxCell>
        <mxCell id="2suP8_pyrmivRRA_hnuG-8" style="edgeStyle=orthogonalEdgeStyle;rounded=0;orthogonalLoop=1;jettySize=auto;html=1;exitX=0.5;exitY=1;exitDx=0;exitDy=0;entryX=0.5;entryY=0;entryDx=0;entryDy=0;" parent="1" source="2suP8_pyrmivRRA_hnuG-3" target="2suP8_pyrmivRRA_hnuG-5" edge="1">
          <mxGeometry relative="1" as="geometry" />
        </mxCell>
        <mxCell id="2suP8_pyrmivRRA_hnuG-3" value="20% of random datset" style="rounded=1;whiteSpace=wrap;html=1;" parent="1" vertex="1">
          <mxGeometry x="480" y="320" width="120" height="60" as="geometry" />
        </mxCell>
        <mxCell id="2suP8_pyrmivRRA_hnuG-13" style="edgeStyle=orthogonalEdgeStyle;rounded=0;orthogonalLoop=1;jettySize=auto;html=1;entryX=0;entryY=0.5;entryDx=0;entryDy=0;" parent="1" source="2suP8_pyrmivRRA_hnuG-5" target="2suP8_pyrmivRRA_hnuG-9" edge="1">
          <mxGeometry relative="1" as="geometry" />
        </mxCell>
        <mxCell id="2suP8_pyrmivRRA_hnuG-5" value="Input Dataset Representing Real&amp;nbsp; Network Traffic" style="shape=datastore;whiteSpace=wrap;html=1;" parent="1" vertex="1">
          <mxGeometry x="480" y="440" width="120" height="60" as="geometry" />
        </mxCell>
        <mxCell id="2suP8_pyrmivRRA_hnuG-34" style="edgeStyle=orthogonalEdgeStyle;rounded=0;orthogonalLoop=1;jettySize=auto;html=1;exitX=1;exitY=0.5;exitDx=0;exitDy=0;entryX=0;entryY=0.5;entryDx=0;entryDy=0;" parent="1" source="2suP8_pyrmivRRA_hnuG-9" target="2suP8_pyrmivRRA_hnuG-15" edge="1">
          <mxGeometry relative="1" as="geometry" />
        </mxCell>
        <mxCell id="2suP8_pyrmivRRA_hnuG-9" value="" style="swimlane;startSize=0;" parent="1" vertex="1">
          <mxGeometry x="720" y="200" width="200" height="290" as="geometry">
            <mxRectangle x="720" y="200" width="50" height="40" as="alternateBounds" />
          </mxGeometry>
        </mxCell>
        <mxCell id="2suP8_pyrmivRRA_hnuG-30" value="1. Encoding of Categorical Features" style="rounded=1;whiteSpace=wrap;html=1;" parent="2suP8_pyrmivRRA_hnuG-9" vertex="1">
          <mxGeometry x="40" y="110" width="120" height="60" as="geometry" />
        </mxCell>
        <mxCell id="2suP8_pyrmivRRA_hnuG-31" value="Dataset Pre-Processing" style="rounded=1;whiteSpace=wrap;html=1;" parent="2suP8_pyrmivRRA_hnuG-9" vertex="1">
          <mxGeometry x="40" y="20" width="120" height="60" as="geometry" />
        </mxCell>
        <mxCell id="2suP8_pyrmivRRA_hnuG-32" value="2. Feature Normalization" style="rounded=1;whiteSpace=wrap;html=1;" parent="2suP8_pyrmivRRA_hnuG-9" vertex="1">
          <mxGeometry x="40" y="200" width="120" height="60" as="geometry" />
        </mxCell>
        <mxCell id="2suP8_pyrmivRRA_hnuG-17" value="" style="edgeStyle=orthogonalEdgeStyle;rounded=0;orthogonalLoop=1;jettySize=auto;html=1;" parent="1" source="2suP8_pyrmivRRA_hnuG-15" target="2suP8_pyrmivRRA_hnuG-16" edge="1">
          <mxGeometry relative="1" as="geometry" />
        </mxCell>
        <mxCell id="2suP8_pyrmivRRA_hnuG-15" value="Important Feature Selection" style="whiteSpace=wrap;html=1;aspect=fixed;" parent="1" vertex="1">
          <mxGeometry x="1000" y="282.5" width="125" height="125" as="geometry" />
        </mxCell>
        <mxCell id="2suP8_pyrmivRRA_hnuG-20" value="" style="edgeStyle=orthogonalEdgeStyle;rounded=0;orthogonalLoop=1;jettySize=auto;html=1;" parent="1" source="2suP8_pyrmivRRA_hnuG-16" target="2suP8_pyrmivRRA_hnuG-19" edge="1">
          <mxGeometry relative="1" as="geometry" />
        </mxCell>
        <mxCell id="2suP8_pyrmivRRA_hnuG-16" value="Building the Machine Learning Models" style="whiteSpace=wrap;html=1;aspect=fixed;" parent="1" vertex="1">
          <mxGeometry x="1000" y="510" width="125" height="125" as="geometry" />
        </mxCell>
        <mxCell id="2suP8_pyrmivRRA_hnuG-19" value="Result Prediction" style="whiteSpace=wrap;html=1;aspect=fixed;" parent="1" vertex="1">
          <mxGeometry x="795" y="510" width="125" height="125" as="geometry" />
        </mxCell>
        <mxCell id="2suP8_pyrmivRRA_hnuG-23" style="edgeStyle=orthogonalEdgeStyle;rounded=0;orthogonalLoop=1;jettySize=auto;html=1;exitX=1;exitY=0.5;exitDx=0;exitDy=0;entryX=0;entryY=0.5;entryDx=0;entryDy=0;" parent="1" source="2suP8_pyrmivRRA_hnuG-21" target="2suP8_pyrmivRRA_hnuG-19" edge="1">
          <mxGeometry relative="1" as="geometry" />
        </mxCell>
        <mxCell id="2suP8_pyrmivRRA_hnuG-21" value="Test Datasets" style="whiteSpace=wrap;html=1;" parent="1" vertex="1">
          <mxGeometry x="592.5" y="542.5" width="120" height="60" as="geometry" />
        </mxCell>
        <mxCell id="2suP8_pyrmivRRA_hnuG-25" value="" style="endArrow=classic;html=1;rounded=0;exitX=0.436;exitY=1.003;exitDx=0;exitDy=0;exitPerimeter=0;" parent="1" source="2suP8_pyrmivRRA_hnuG-16" edge="1">
          <mxGeometry width="50" height="50" relative="1" as="geometry">
            <mxPoint x="1010" y="660" as="sourcePoint" />
            <mxPoint x="980" y="720" as="targetPoint" />
            <Array as="points">
              <mxPoint x="980" y="720" />
            </Array>
          </mxGeometry>
        </mxCell>
        <mxCell id="2suP8_pyrmivRRA_hnuG-26" value="" style="endArrow=classic;html=1;rounded=0;exitX=0.436;exitY=1;exitDx=0;exitDy=0;exitPerimeter=0;" parent="1" source="2suP8_pyrmivRRA_hnuG-16" edge="1">
          <mxGeometry width="50" height="50" relative="1" as="geometry">
            <mxPoint x="1120" y="660" as="sourcePoint" />
            <mxPoint x="1160" y="720" as="targetPoint" />
          </mxGeometry>
        </mxCell>
        <mxCell id="2suP8_pyrmivRRA_hnuG-27" value="Attack&amp;nbsp;" style="rounded=1;whiteSpace=wrap;html=1;" parent="1" vertex="1">
          <mxGeometry x="920" y="720" width="120" height="60" as="geometry" />
        </mxCell>
        <mxCell id="2suP8_pyrmivRRA_hnuG-28" value="Normal" style="rounded=1;whiteSpace=wrap;html=1;" parent="1" vertex="1">
          <mxGeometry x="1100" y="720" width="120" height="60" as="geometry" />
        </mxCell>
      </root>
    </mxGraphModel>
  </diagram>
</mxfile>
